<svg width="45" height="45" viewBox="0 0 45 45" fill="none" xmlns="http://www.w3.org/2000/svg">
<path d="M44.1461 14.2619L23.5797 0.686155C22.8777 0.258431 22.1285 0.254515 21.4201 0.686155L0.853768 14.2619C0.326425 14.6099 0 15.2316 0 15.8532V29.4288C0 30.0505 0.326425 30.6721 0.853856 31.0202L21.4202 44.5978C22.1222 45.0256 22.8714 45.0295 23.5798 44.5978L44.1461 31.0202C44.6735 30.6721 45 30.0505 45 29.4288V15.8532C44.9999 15.2316 44.6735 14.6099 44.1461 14.2619ZM24.4335 5.85774L39.5758 15.8532L32.8208 20.3287L24.4335 14.784V5.85774ZM20.5664 5.85774V14.784L12.1791 20.3287L5.42407 15.8532L20.5664 5.85774ZM3.86718 19.4336L8.71372 22.641L3.86718 25.8485V19.4336ZM20.5664 39.4243L5.42407 29.4289L12.1791 24.9534L20.5664 30.4981V39.4243ZM22.5 27.1663L15.6695 22.641L22.5 18.1158L29.3304 22.641L22.5 27.1663ZM24.4335 39.4243V30.4981L32.8208 24.9534L39.5758 29.4289L24.4335 39.4243ZM41.1327 25.8485L36.2862 22.641L41.1327 19.4336V25.8485Z" fill="#1F1CA6"/>
</svg>
