<svg width="51" height="45" viewBox="0 0 51 45" fill="none" xmlns="http://www.w3.org/2000/svg">
<path d="M13.6744 17.897C13.2327 17.6086 12.7898 17.4644 12.3481 17.4644H10.3628V27.8545H12.3493C12.791 27.8545 13.2338 27.7103 13.6755 27.4219C14.1172 27.1335 14.3381 26.7008 14.3381 26.123V19.1959C14.3369 18.619 14.1149 18.1854 13.6744 17.897ZM46.0025 0.363926H4.99754C2.24263 0.363926 0.00683036 2.31227 0 4.72009V40.564C0.00683036 42.9718 2.24263 44.9201 4.99754 44.9201H46.0025C48.7585 44.9201 50.9932 42.9718 51 40.564V4.72009C50.9932 2.31227 48.7574 0.363926 46.0025 0.363926ZM17.554 26.1419C17.554 28.0126 16.2323 30.8471 12.0487 30.8412H6.76661V14.3852H12.1603C16.1948 14.3852 17.5517 17.2157 17.5529 19.0875L17.554 26.1419ZM29.0154 17.3241H22.95V21.1452H26.6577V24.0861H22.95V27.9062H29.0165V30.8471H21.938C20.6675 30.876 19.6111 29.9988 19.5792 28.8889V16.4459C19.5485 15.337 20.5537 14.416 21.823 14.3882H29.0165L29.0154 17.3241ZM40.8137 28.7904C39.311 31.8487 36.6187 31.24 35.4131 28.7904L31.0269 14.3892H34.7346L38.1168 25.6993L41.483 14.3892H45.1919L40.8137 28.7904Z" fill="#1F1CA6"/>
</svg>
