<svg width="57" height="45" viewBox="0 0 57 45" fill="none" xmlns="http://www.w3.org/2000/svg">
<path d="M55.7752 21.2496L50.5706 13.1937C50.6819 12.9949 50.7655 12.7711 50.7655 12.5224C50.7655 11.7765 50.0697 11.1548 49.2347 11.1299L43.4735 2.22865C43.5292 2.07948 43.5848 1.93031 43.5848 1.78114C43.5848 0.985541 42.8612 0.363892 41.9983 0.363892C41.4974 0.363892 41.0799 0.562816 40.7737 0.886033H29.6967C29.4184 0.562909 29.0009 0.363984 28.4999 0.363984C27.999 0.363984 27.5815 0.562909 27.3032 0.886125H16.2818C15.9756 0.562909 15.5582 0.363984 15.0572 0.363984C14.1944 0.363984 13.4707 0.985541 13.4707 1.78124C13.4707 1.93041 13.5264 2.10445 13.5821 2.22875L7.76518 11.2544C7.20866 11.4781 6.81891 11.9506 6.81891 12.5225C6.81891 12.5722 6.84675 12.6219 6.84675 12.6717L1.30817 21.2248C0.556726 21.3491 0 21.921 0 22.6172C0 23.2885 0.528775 23.8604 1.25248 24.0096L6.98588 32.8612C6.93019 33.0104 6.90234 33.1347 6.90234 33.3087C6.90234 33.98 7.43112 34.5519 8.15482 34.6762L13.5264 43.0056C13.4707 43.1548 13.4151 43.3288 13.4151 43.5028C13.4151 44.2985 14.1387 44.9201 15.0016 44.9201C15.5025 44.9201 15.92 44.7212 16.1984 44.4228H27.3033C27.5815 44.7211 28.0269 44.92 28.4999 44.92C28.973 44.92 29.4184 44.7211 29.6967 44.4227H40.8295C41.1077 44.6962 41.5252 44.8703 41.9706 44.8703C42.8612 44.8703 43.557 44.2238 43.557 43.453C43.557 43.3038 43.5293 43.1795 43.4736 43.0552L48.8452 34.6761C49.5688 34.5518 50.0977 33.9799 50.0977 33.3086C50.0977 33.1594 50.0698 33.0103 50.0141 32.8611L55.7197 24.0095C56.4433 23.8852 57 23.3133 57 22.6171C56.9998 21.9458 56.4709 21.3739 55.7752 21.2496ZM14.5283 40.718L9.99177 33.6816H14.5283V40.718ZM14.5283 32.9356H9.99177C9.96392 32.8362 9.90823 32.7368 9.85264 32.6373L14.5283 28.2365V32.9356ZM14.5283 27.1423L9.29591 32.0903C9.15678 32.0405 9.01755 31.9659 8.87842 31.9411L3.08953 22.9901C3.14512 22.8658 3.14512 22.7414 3.14512 22.6171C3.14512 22.4928 3.14512 22.3934 3.11727 22.2939L8.51672 13.9396C8.79509 13.9148 9.07335 13.8401 9.32386 13.691L14.5284 18.5146V27.1423H14.5283ZM14.5283 17.6443L9.7691 13.2435C9.90823 13.0445 9.99177 12.796 9.99177 12.5225C9.99177 12.4976 9.96392 12.4479 9.96392 12.423L14.5283 10.956V17.6443ZM14.5283 10.1603L9.99177 11.6273L14.5283 4.61565V10.1603ZM48.4554 13.7905L48.539 13.9148L44.8651 29.4298L38.2411 23.189L48.4276 13.7656L48.4554 13.7905ZM28.8896 31.8416L30.0864 32.9356H27.7207L28.8896 31.8416ZM28.8617 30.7973L20.2061 22.8658L28.4721 15.0337L37.1 23.1641L28.8617 30.7973ZM29.4184 31.3443L37.6566 23.7112L44.6702 30.3249L44.058 32.9356H31.1718L29.4184 31.3443ZM41.2191 2.99957C41.3304 3.04932 41.4417 3.09907 41.5809 3.12395L47.5926 12.4727V12.5225C47.5926 12.796 47.676 13.0445 47.8153 13.2435L37.6845 22.642L29.0567 14.5115L41.2191 2.99957ZM40.2729 2.80064L28.4721 13.9645L22.5439 8.37014L39.8274 2.80064H40.2729ZM27.4423 2.80064C27.7206 3.04923 28.0823 3.1984 28.4999 3.1984C28.9175 3.1984 29.2792 3.04923 29.5576 2.80064H37.3505L21.9317 7.77337L16.6436 2.80064H27.4423ZM15.3634 3.32278L15.4747 3.12395C15.5686 3.10251 15.6614 3.07761 15.753 3.04932L21.0689 8.04702L15.3634 9.88691V3.32278ZM15.3634 10.6825L21.6811 8.6437L27.8876 14.5115L19.6216 22.3188L15.3634 18.4152V10.6825ZM15.3634 19.2854L19.1484 22.7912L15.3634 26.3467V19.2854ZM15.3634 27.4408L19.7329 23.3134L28.333 31.2947L26.5517 32.9356H15.3634V27.4408ZM16.087 42.4833C15.92 42.3342 15.7252 42.2348 15.4747 42.1601L15.3634 42.011V33.6816H25.7446L16.2261 42.4833H16.087ZM29.5854 42.4833C29.3071 42.2596 28.9175 42.0856 28.4999 42.0856C28.0823 42.0856 27.6929 42.2596 27.4144 42.4833H17.3949L26.9134 33.6816H30.8934L40.4119 42.4833H29.5854ZM42.0541 41.3893L41.6088 42.0855C41.4697 42.1104 41.3584 42.16 41.247 42.2098L31.979 33.6815H43.8633L42.0541 41.3893ZM43.3899 39.3256L44.7259 33.6816H47.0081L43.3899 39.3256ZM47.0081 32.9356H44.8929L45.366 30.9715L47.1473 32.6622C47.0917 32.7367 47.036 32.8361 47.0081 32.9356ZM53.8826 22.9652L48.1214 31.9411C47.9822 31.9908 47.843 32.0405 47.7039 32.1151L45.5608 30.0763L49.1512 14.8596L53.9104 22.2194C53.8826 22.3437 53.8269 22.4679 53.8269 22.6171C53.8269 22.7414 53.8548 22.8409 53.8826 22.9652Z" fill="#1F1CA6"/>
</svg>
